<?xml version="1.0" encoding="utf-8"?>
<!-- Generator: Adobe Illustrator 24.2.1, SVG Export Plug-In . SVG Version: 6.00 Build 0)  -->
<svg version="1.1" id="Layer_1" xmlns="http://www.w3.org/2000/svg" xmlns:xlink="http://www.w3.org/1999/xlink" x="0px" y="0px"
	 viewBox="0 0 337.8 110.5" style="enable-background:new 0 0 337.8 110.5;" xml:space="preserve">
<style type="text/css">
	.st0{fill:#FFFFFF;}
</style>
<g>
	<path d="M337.8,95.6c0,8.2-6.7,14.9-14.9,14.9H14.9C6.7,110.5,0,103.8,0,95.6V14.9C0,6.7,6.7,0,14.9,0h307.9
		c8.2,0,14.9,6.7,14.9,14.9L337.8,95.6L337.8,95.6L337.8,95.6z"/>
	<g>
		<g>
			<path class="st0" d="M85.7,53.8c0-8.2,6.9-12.1,7.1-12.4c-4-5.5-9.8-6.3-11.9-6.6c-5-0.5-10,2.9-12.4,2.9
				c-2.6,0-6.6-2.9-10.8-2.9c-5.5,0-10.6,3.2-13.5,8.2c-5.8,10-1.6,24.8,4,33c2.9,4,6.1,8.4,10.3,8.2c4.2-0.3,5.8-2.6,10.8-2.6
				s6.3,2.6,10.8,2.6c4.5,0,7.4-4,10-7.9c3.2-4.5,4.5-9,4.5-9.2C94.4,66.8,85.7,63.6,85.7,53.8z"/>
			<path class="st0" d="M77.6,29.5C79.7,26.6,81.2,23,81,19c-3.2,0.3-7.4,2.1-9.5,5c-2.1,2.4-4,6.3-3.4,10
				C71.5,34.3,75.2,32.2,77.6,29.5z"/>
		</g>
		<g>
			<g>
				<path class="st0" d="M142.4,80.5h-5.1l-2.8-8.8h-9.7l-2.5,8.8h-4.9l9.7-29.9h6L142.4,80.5z M133.6,68l-2.5-7.9
					c-0.2-0.7-0.7-2.8-1.6-5.6l0,0c-0.2,1.2-0.7,3.2-1.4,5.6l-2.5,7.9H133.6z"/>
				<path class="st0" d="M167.2,69.6c0,3.7-0.9,6.5-3,8.8c-1.9,1.9-3.9,2.8-6.7,2.8c-2.8,0-4.9-0.9-6-3l0,0v11.4h-4.9V66.3
					c0-2.3,0-4.6-0.2-7.2h4.2l0.2,3.5l0,0c1.6-2.5,3.9-3.9,7.2-3.9c2.5,0,4.6,0.9,6.3,3C166.3,63.6,167.2,66.1,167.2,69.6z
					 M162.4,69.6c0-2.1-0.5-3.9-1.4-5.1c-0.9-1.4-2.3-2.1-4.2-2.1c-1.2,0-2.3,0.5-3.2,1.2c-0.9,0.7-1.6,1.9-1.9,3
					c-0.2,0.7-0.2,1.2-0.2,1.4v3.7c0,1.6,0.5,2.8,1.4,3.9c0.9,1.2,2.3,1.6,3.7,1.6c1.9,0,3.2-0.7,4.2-2.1
					C161.9,73.7,162.4,71.9,162.4,69.6z"/>
				<path class="st0" d="M192,69.6c0,3.7-0.9,6.5-3,8.8c-1.9,1.9-3.9,2.8-6.7,2.8s-4.9-0.9-6-3l0,0v11.4h-4.9V66.3
					c0-2.3,0-4.6-0.2-7.2h4.2l0.2,3.5l0,0c1.6-2.5,3.9-3.9,7.2-3.9c2.5,0,4.6,0.9,6.3,3C191.1,63.6,192,66.1,192,69.6z M187.2,69.6
					c0-2.1-0.5-3.9-1.4-5.1c-0.9-1.4-2.3-2.1-4.2-2.1c-1.2,0-2.3,0.5-3.2,1.2c-0.9,0.7-1.6,1.9-1.9,3c-0.2,0.7-0.2,1.2-0.2,1.4v3.7
					c0,1.6,0.5,2.8,1.4,3.9c0.9,1.2,2.3,1.6,3.7,1.6c1.9,0,3.2-0.7,4.2-2.1C186.7,73.7,187.2,71.9,187.2,69.6z"/>
				<path class="st0" d="M219.8,72.1c0,2.5-0.9,4.6-2.5,6.3c-1.9,1.9-4.6,2.5-8.1,2.5c-3.2,0-5.8-0.7-7.6-1.9l1.2-3.9
					c2.1,1.2,4.4,1.9,7,1.9c1.9,0,3.2-0.5,4.2-1.2c0.9-0.9,1.4-1.9,1.4-3.2c0-1.2-0.5-2.3-1.2-3c-0.9-0.9-2.3-1.6-4.2-2.3
					c-5.3-1.9-7.9-4.9-7.9-8.6c0-2.5,0.9-4.4,2.8-6c1.9-1.6,4.2-2.3,7.4-2.3c2.8,0,4.9,0.5,6.7,1.4l-1.2,3.9
					c-1.6-0.9-3.5-1.4-5.8-1.4c-1.6,0-3,0.5-3.9,1.2c-0.7,0.7-1.2,1.6-1.2,2.8s0.5,2.1,1.4,3c0.7,0.7,2.3,1.4,4.4,2.3
					c2.5,0.9,4.4,2.3,5.8,3.7C219.1,68.4,219.8,70,219.8,72.1z"/>
				<path class="st0" d="M235.6,62.6h-5.3v10.4c0,2.5,0.9,3.9,2.8,3.9c0.9,0,1.6,0,2.1-0.2l0.2,3.7c-0.9,0.5-2.1,0.5-3.7,0.5
					c-1.9,0-3.5-0.5-4.4-1.6c-1.2-1.2-1.6-3-1.6-5.8V62.6h-3.2v-3.7h3.2V55l4.6-1.4v5.3h5.3V62.6z"/>
				<path class="st0" d="M259.4,69.6c0,3.2-0.9,6-2.8,8.1c-2.1,2.1-4.6,3.2-7.9,3.2c-3.2,0-5.8-1.2-7.6-3.2
					c-1.9-2.1-2.8-4.6-2.8-7.9c0-3.2,0.9-6,3-8.1c1.9-2.1,4.6-3.2,7.9-3.2c3.2,0,5.8,1.2,7.6,3.2C258.5,63.8,259.4,66.3,259.4,69.6z
					 M254.3,69.8c0-2.1-0.5-3.7-1.4-5.1c-0.9-1.6-2.5-2.5-4.4-2.5c-1.9,0-3.5,0.9-4.4,2.5c-0.9,1.4-1.4,3.2-1.4,5.1
					c0,2.1,0.5,3.7,1.4,5.1c0.9,1.6,2.5,2.5,4.4,2.5c1.9,0,3.2-0.9,4.4-2.5C253.9,73.5,254.3,71.7,254.3,69.8z"/>
				<path class="st0" d="M275,63.1c-0.5,0-0.9-0.2-1.6-0.2c-1.6,0-3,0.7-3.9,1.9c-0.7,1.2-1.2,2.5-1.2,4.2v11.4h-4.9V65.4
					c0-2.5,0-4.6-0.2-6.7h4.2l0.2,4.2h0.2c0.5-1.4,1.4-2.5,2.3-3.5c1.2-0.7,2.3-1.2,3.5-1.2c0.5,0,0.9,0,1.2,0v4.9H275z"/>
				<path class="st0" d="M296.3,68.7c0,0.9,0,1.6-0.2,2.1h-14.4c0,2.1,0.7,3.7,2.1,4.9c1.2,0.9,2.8,1.6,4.6,1.6
					c2.1,0,4.2-0.2,5.8-0.9l0.7,3.2c-2.1,0.9-4.4,1.4-7.2,1.4c-3.2,0-6-0.9-7.9-3c-1.9-1.9-2.8-4.6-2.8-7.9c0-3.2,0.9-6,2.5-8.1
					c1.9-2.3,4.4-3.5,7.6-3.5c3,0,5.6,1.2,7,3.5C295.8,63.8,296.3,66.1,296.3,68.7z M291.9,67.5c0-1.4-0.2-2.5-0.9-3.7
					c-0.9-1.4-2.1-2.1-3.7-2.1s-2.8,0.7-3.7,1.9c-0.7,0.9-1.2,2.3-1.4,3.7h9.7V67.5z"/>
			</g>
			<g>
				<path class="st0" d="M131.7,32.5c0,2.4-0.6,4.3-2.1,5.6c-1.3,1.1-3.2,1.7-5.8,1.7c-1.3,0-2.4,0-3.2-0.2V26.3
					c1.1-0.2,2.4-0.2,3.9-0.2c2.4,0,4.1,0.4,5.3,1.5C130.8,28.6,131.7,30.3,131.7,32.5z M129.3,32.5c0-1.5-0.4-2.8-1.3-3.6
					c-0.9-0.9-2.1-1.3-3.6-1.3c-0.6,0-1.3,0-1.7,0.2v10.1c0.2,0,0.9,0,1.5,0c1.7,0,3-0.4,3.9-1.3C128.9,35.7,129.3,34.2,129.3,32.5z
					"/>
				<path class="st0" d="M143.7,34.6c0,1.5-0.4,2.8-1.3,3.6c-0.9,1.1-2.1,1.5-3.6,1.5s-2.6-0.4-3.4-1.5c-0.9-0.9-1.3-2.1-1.3-3.6
					s0.4-2.8,1.3-3.6c0.9-1.1,2.1-1.5,3.6-1.5s2.6,0.4,3.4,1.5C143.3,31.8,143.7,33.1,143.7,34.6z M141.5,34.6
					c0-0.9-0.2-1.7-0.6-2.4c-0.4-0.9-1.1-1.1-1.9-1.1c-0.9,0-1.5,0.4-1.9,1.1c-0.4,0.6-0.6,1.5-0.6,2.4s0.2,1.7,0.6,2.4
					c0.4,0.9,1.1,1.1,1.9,1.1c0.9,0,1.5-0.4,1.9-1.3C141.3,36.3,141.5,35.5,141.5,34.6z"/>
				<path class="st0" d="M160.2,29.7l-3,9.8h-1.9l-1.3-4.3c-0.4-1.1-0.6-2.1-0.9-3.2l0,0c-0.2,1.1-0.4,2.1-0.9,3.2l-1.3,4.3H149
					l-3.2-9.8h2.1l1.1,4.7c0.2,1.1,0.4,2.1,0.6,3.2l0,0c0.2-0.9,0.4-1.9,0.9-3.2l1.3-4.7h1.7l1.3,4.5c0.4,1.1,0.6,2.1,0.9,3.2l0,0
					c0.2-1.1,0.4-2.1,0.6-3.2l1.3-4.5H160.2z"/>
				<path class="st0" d="M171.3,39.5h-2.1V34c0-1.7-0.6-2.6-1.9-2.6c-0.6,0-1.1,0.2-1.5,0.6c-0.4,0.4-0.6,1.1-0.6,1.7v5.8h-2.1v-7.1
					c0-0.9,0-1.7,0-2.8h1.9v1.5l0,0c0.2-0.4,0.6-0.9,1.1-1.3c0.6-0.4,1.3-0.6,1.9-0.6c0.9,0,1.7,0.2,2.4,0.9
					c0.9,0.6,1.1,1.7,1.1,3.2V39.5z"/>
				<path class="st0" d="M177.3,39.5h-2.1V25.2h2.1V39.5z"/>
				<path class="st0" d="M190.1,34.6c0,1.5-0.4,2.8-1.3,3.6c-0.9,1.1-2.1,1.5-3.6,1.5s-2.6-0.4-3.4-1.5c-0.9-0.9-1.3-2.1-1.3-3.6
					s0.4-2.8,1.3-3.6c0.9-0.9,2.1-1.5,3.6-1.5s2.6,0.4,3.4,1.5C189.7,31.8,190.1,33.1,190.1,34.6z M188,34.6c0-0.9-0.2-1.7-0.6-2.4
					c-0.4-0.9-1.1-1.1-1.9-1.1c-0.9,0-1.5,0.4-1.9,1.1c-0.4,0.6-0.6,1.5-0.6,2.4s0.2,1.7,0.6,2.4c0.4,0.9,1.1,1.1,1.9,1.1
					c0.9,0,1.5-0.4,1.9-1.3C187.8,36.3,188,35.5,188,34.6z"/>
				<path class="st0" d="M200.6,39.5h-1.9l-0.2-1.1l0,0c-0.6,0.9-1.7,1.3-2.8,1.3c-0.9,0-1.7-0.2-2.1-0.9c-0.4-0.6-0.9-1.3-0.9-1.9
					c0-1.3,0.4-2.1,1.5-2.8c1.1-0.6,2.4-0.9,4.3-0.9v-0.2c0-1.3-0.6-1.9-1.9-1.9c-1.1,0-1.7,0.2-2.6,0.6l-0.4-1.5
					c0.9-0.6,1.9-0.9,3.4-0.9c2.6,0,3.9,1.3,3.9,4.1v3.6C200.6,38.2,200.6,38.9,200.6,39.5z M198.4,36.1v-1.5
					c-2.4,0-3.6,0.6-3.6,1.9c0,0.4,0.2,0.9,0.4,1.1c0.2,0.2,0.6,0.4,1.1,0.4s0.9-0.2,1.3-0.4c0.4-0.2,0.6-0.6,0.9-1.1
					C198.4,36.5,198.4,36.3,198.4,36.1z"/>
				<path class="st0" d="M213,39.5h-1.9V38l0,0c-0.6,1.3-1.7,1.7-3.2,1.7c-1.3,0-2.1-0.4-3-1.3c-0.9-0.9-1.1-2.1-1.1-3.6
					c0-1.5,0.4-2.8,1.3-3.9c0.9-0.9,1.9-1.3,3-1.3c1.3,0,2.1,0.4,2.8,1.3l0,0v-5.6h2.1V37C213,37.8,213,38.7,213,39.5z M210.9,35.5
					v-1.7c0-0.2,0-0.4,0-0.6c-0.2-0.4-0.4-0.9-0.9-1.3s-0.9-0.4-1.5-0.4c-0.9,0-1.5,0.4-1.9,1.1c-0.4,0.6-0.6,1.5-0.6,2.6
					c0,1.1,0.2,1.7,0.6,2.4s1.1,1.1,1.9,1.1c0.6,0,1.3-0.2,1.7-0.9C210.6,36.7,210.9,36.1,210.9,35.5z"/>
				<path class="st0" d="M231.6,34.6c0,1.5-0.4,2.8-1.3,3.6c-0.9,1.1-2.1,1.5-3.6,1.5s-2.6-0.4-3.4-1.5c-0.9-0.9-1.3-2.1-1.3-3.6
					s0.4-2.8,1.3-3.6c0.9-1.1,2.1-1.5,3.6-1.5s2.6,0.4,3.4,1.5C231.2,31.8,231.6,33.1,231.6,34.6z M229.3,34.6
					c0-0.9-0.2-1.7-0.6-2.4c-0.4-0.9-1.1-1.1-1.9-1.1c-0.9,0-1.5,0.4-1.9,1.1c-0.4,0.6-0.6,1.5-0.6,2.4s0.2,1.7,0.6,2.4
					c0.4,0.9,1.1,1.1,1.9,1.1c0.9,0,1.5-0.4,1.9-1.3C229,36.3,229.3,35.5,229.3,34.6z"/>
				<path class="st0" d="M243.4,39.5h-2.1V34c0-1.7-0.6-2.6-1.9-2.6c-0.6,0-1.1,0.2-1.5,0.6c-0.4,0.4-0.6,1.1-0.6,1.7v5.8H235v-7.1
					c0-0.9,0-1.7,0-2.8h1.9v1.5l0,0c0.2-0.4,0.6-0.9,1.1-1.3c0.6-0.4,1.3-0.6,1.9-0.6c0.9,0,1.7,0.2,2.4,0.9
					c0.9,0.6,1.1,1.7,1.1,3.2V39.5z"/>
				<path class="st0" d="M257.9,31.4h-2.4v4.7c0,1.3,0.4,1.7,1.3,1.7c0.4,0,0.6,0,1.1,0v1.7c-0.4,0.2-1.1,0.2-1.7,0.2
					c-0.9,0-1.5-0.2-1.9-0.9c-0.4-0.4-0.6-1.5-0.6-2.6v-4.9h-1.5v-1.7h1.5V28l2.1-0.6v2.4h2.4v1.7H257.9z"/>
				<path class="st0" d="M269.5,39.5h-2.1V34c0-1.7-0.6-2.6-1.9-2.6c-1.1,0-1.7,0.4-2.1,1.5c0,0.2,0,0.4,0,0.9v5.8h-2.1V25.2h2.1v6
					l0,0c0.6-1.1,1.7-1.7,3-1.7c0.9,0,1.7,0.2,2.1,0.9c0.6,0.6,1.1,1.9,1.1,3.2V39.5z"/>
				<path class="st0" d="M281.2,34.2c0,0.4,0,0.6,0,1.1h-6.4c0,1.1,0.4,1.7,0.9,2.1c0.6,0.4,1.3,0.6,2.1,0.6c1.1,0,1.9-0.2,2.6-0.4
					l0.4,1.5c-0.9,0.4-1.9,0.6-3.2,0.6c-1.5,0-2.8-0.4-3.6-1.3c-0.9-0.9-1.3-2.1-1.3-3.6c0-1.5,0.4-2.8,1.3-3.6
					c0.9-1.1,1.9-1.5,3.4-1.5c1.5,0,2.6,0.4,3.2,1.5C281,31.8,281.2,32.9,281.2,34.2z M279.3,33.5c0-0.6-0.2-1.3-0.4-1.7
					c-0.4-0.6-0.9-0.9-1.7-0.9c-0.6,0-1.3,0.2-1.7,0.9c-0.4,0.4-0.6,1.1-0.6,1.7H279.3z"/>
			</g>
		</g>
	</g>
</g>
</svg>
