<?xml version="1.0" encoding="utf-8"?>
<!-- Generator: Adobe Illustrator 24.2.1, SVG Export Plug-In . SVG Version: 6.00 Build 0)  -->
<svg version="1.1" id="Layer_1" xmlns="http://www.w3.org/2000/svg" xmlns:xlink="http://www.w3.org/1999/xlink" x="0px" y="0px"
	 viewBox="0 0 337.8 110.5" style="enable-background:new 0 0 337.8 110.5;" xml:space="preserve">
<style type="text/css">
	.st0{clip-path:url(#SVGID_2_);fill:url(#SVGID_3_);}
	.st1{clip-path:url(#SVGID_5_);fill:url(#SVGID_6_);}
	.st2{clip-path:url(#SVGID_8_);fill:url(#SVGID_9_);}
	.st3{clip-path:url(#SVGID_11_);fill:url(#SVGID_12_);}
	.st4{fill:#F9F9F9;}
	.st5{fill:#F9F9FA;}
</style>
<g>
	<path d="M337.8,95.6c0,8.2-6.7,14.9-14.9,14.9H14.9C6.7,110.5,0,103.8,0,95.6V14.9C0,6.7,6.7,0,14.9,0h307.9
		c8.2,0,14.9,6.7,14.9,14.9L337.8,95.6L337.8,95.6L337.8,95.6z"/>
	<g>
		<defs>
			<path id="SVGID_1_" d="M73.2,45L58,36.3c0,0-27.7-16-29.4-17c-1.6-0.9-3.3-0.4-3.3,1.6V90c0,1.5,1.2,2.1,2.6,1.3
				C29.3,90.5,58,73.9,58,73.9l15.2-8.8c0,0,12.9-7.5,14.6-8.5c1.7-1,1.6-2.4,0.1-3.1C86.5,52.8,73.2,45,73.2,45L73.2,45z"/>
		</defs>
		<clipPath id="SVGID_2_">
			<use xlink:href="#SVGID_1_"  style="overflow:visible;"/>
		</clipPath>
		
			<linearGradient id="SVGID_3_" gradientUnits="userSpaceOnUse" x1="1340.1356" y1="-1978.8772" x2="1340.1356" y2="-1972.6416" gradientTransform="matrix(12 0 0 12 -16037.4238 23764.207)">
			<stop  offset="0" style="stop-color:#257CB0"/>
			<stop  offset="0.286" style="stop-color:#4A93B5"/>
			<stop  offset="0.767" style="stop-color:#78BCBB"/>
			<stop  offset="1" style="stop-color:#89CFBD"/>
		</linearGradient>
		<path class="st0" d="M25.3,17.7v74.8l37.7-37.4L25.3,17.7z"/>
	</g>
	<g>
		<defs>
			<path id="SVGID_4_" d="M73.2,45L58,36.3c0,0-27.7-16-29.4-17c-1.6-0.9-3.3-0.4-3.3,1.6V90c0,1.5,1.2,2.1,2.6,1.3
				C29.3,90.5,58,73.9,58,73.9l15.2-8.8c0,0,12.9-7.5,14.6-8.5c1.7-1,1.6-2.4,0.1-3.1C86.5,52.8,73.2,45,73.2,45L73.2,45z"/>
		</defs>
		<clipPath id="SVGID_5_">
			<use xlink:href="#SVGID_4_"  style="overflow:visible;"/>
		</clipPath>
		
			<linearGradient id="SVGID_6_" gradientUnits="userSpaceOnUse" x1="1338.5634" y1="-1977.3296" x2="1342.5522" y2="-1977.3296" gradientTransform="matrix(12 0 0 12 -16037.4238 23764.207)">
			<stop  offset="0" style="stop-color:#52C1AD"/>
			<stop  offset="1" style="stop-color:#DEE89A"/>
		</linearGradient>
		<path class="st1" d="M73.2,45L58,36.3L25.3,17.4v0.3l37.7,37.4L73.2,45z"/>
	</g>
	<g>
		<defs>
			<path id="SVGID_7_" d="M73.2,45L58,36.3c0,0-27.7-16-29.4-17c-1.6-0.9-3.3-0.4-3.3,1.6V90c0,1.5,1.2,2.1,2.6,1.3
				C29.3,90.5,58,73.9,58,73.9l15.2-8.8c0,0,12.9-7.5,14.6-8.5c1.7-1,1.6-2.4,0.1-3.1C86.5,52.8,73.2,45,73.2,45L73.2,45z"/>
		</defs>
		<clipPath id="SVGID_8_">
			<use xlink:href="#SVGID_7_"  style="overflow:visible;"/>
		</clipPath>
		
			<linearGradient id="SVGID_9_" gradientUnits="userSpaceOnUse" x1="1340.5579" y1="-1975.7594" x2="1340.5579" y2="-1972.6189" gradientTransform="matrix(12 0 0 12 -16037.4238 23764.207)">
			<stop  offset="0" style="stop-color:#EC413D"/>
			<stop  offset="0.167" style="stop-color:#DA4452"/>
			<stop  offset="0.575" style="stop-color:#B0487A"/>
			<stop  offset="0.862" style="stop-color:#954A92"/>
			<stop  offset="1" style="stop-color:#8A4A9D"/>
		</linearGradient>
		<path class="st2" d="M25.3,92.5v0.3L58,73.9l15.2-8.8l-10.1-10L25.3,92.5z"/>
	</g>
	<g>
		<defs>
			<path id="SVGID_10_" d="M73.2,45L58,36.3c0,0-27.7-16-29.4-17c-1.6-0.9-3.3-0.4-3.3,1.6V90c0,1.5,1.2,2.1,2.6,1.3
				C29.3,90.5,58,73.9,58,73.9l15.2-8.8c0,0,12.9-7.5,14.6-8.5c1.7-1,1.6-2.4,0.1-3.1C86.5,52.8,73.2,45,73.2,45L73.2,45z"/>
		</defs>
		<clipPath id="SVGID_11_">
			<use xlink:href="#SVGID_10_"  style="overflow:visible;"/>
		</clipPath>
		
			<linearGradient id="SVGID_12_" gradientUnits="userSpaceOnUse" x1="1342.8552" y1="-1976.5968" x2="1342.8552" y2="-1974.922" gradientTransform="matrix(12 0 0 12 -16037.4238 23764.207)">
			<stop  offset="0" style="stop-color:#F58879"/>
			<stop  offset="0.119" style="stop-color:#F69079"/>
			<stop  offset="0.713" style="stop-color:#FCB877"/>
			<stop  offset="1" style="stop-color:#FEC874"/>
		</linearGradient>
		<path class="st3" d="M73.2,45l-10.1,10l10.1,10l17.4-10L73.2,45z"/>
	</g>
	<g>
		<g>
			<path class="st4" d="M205.7,73.8c-1.4-0.1-1.7-0.4-1.7-2V48.4c0-0.1,0-0.2,0-0.3c0.2-1.4,0.6-1.7,1.9-2.4H200l-3.1,1.5h3.2v0l0,0
				v25.6c0,0.8-0.2,1-1.1,2.2h7.3l1.5-0.9C207.1,74,206.4,73.9,205.7,73.8L205.7,73.8z M222.6,74.2c-0.5,0.2-0.9,0.5-1.4,0.7
				c-1.4,0.6-2.8,0.8-4,0.8c-1.3,0-3.4-0.1-5.5-1.6c-2.9-2.1-4.2-5.6-4.2-8.7c0-6.4,5.2-9.5,9.4-9.5c1.5,0,3,0.4,4.2,1.2
				c2.1,1.4,2.6,3.1,2.9,4.1l-9.7,3.9l-3.2,0.2c1,5.2,4.6,8.3,8.5,8.3c2.1,0,3.6-0.7,5-1.4L222.6,74.2L222.6,74.2z M218.7,62
				c0.8-0.3,1.2-0.5,1.2-1.1c0-1.6-1.9-3.5-4.1-3.5c-1.6,0-4.7,1.3-4.7,5.7c0,0.7,0.1,1.4,0.1,2.2L218.7,62L218.7,62z M226.6,56.2
				v2.7h-0.3v-2.7h-0.9v-0.3h2.1v0.3H226.6L226.6,56.2z M230.3,58.9v-2.7h0l-0.8,2.7h-0.3l-0.8-2.7h0v2.7H228v-3h0.5l0.8,2.4h0
				l0.8-2.4h0.5v3H230.3L230.3,58.9z"/>
			<path class="st4" d="M248,78c-1.3,0-2.5-0.2-3.5-0.7c-1.1-0.5-2-1.2-2.7-2.2h-0.2c0.1,1.2,0.2,2.2,0.2,3.3v8.1h-3V57.9h2.4
				l0.4,2.7h0.1c0.8-1.1,1.7-1.9,2.7-2.3c1-0.5,2.2-0.7,3.5-0.7c2.6,0,4.6,0.9,6.1,2.7c1.4,1.8,2.1,4.3,2.1,7.5
				c0,3.2-0.7,5.8-2.2,7.6C252.6,77.1,250.6,78,248,78L248,78z M247.6,60.1c-2,0-3.5,0.6-4.4,1.7c-0.9,1.1-1.4,2.9-1.4,5.3v0.7
				c0,2.8,0.5,4.8,1.4,6c0.9,1.2,2.4,1.8,4.4,1.8c1.7,0,3-0.7,4-2.1c1-1.4,1.4-3.3,1.4-5.7c0-2.5-0.5-4.4-1.4-5.7
				C250.7,60.7,249.3,60.1,247.6,60.1L247.6,60.1z M263.1,77.7h-3v-28h3V77.7z M280.3,77.7l-0.6-2.8h-0.1c-1,1.2-2,2.1-2.9,2.5
				c-1,0.4-2.2,0.7-3.7,0.7c-2,0-3.5-0.5-4.6-1.5c-1.1-1-1.7-2.4-1.7-4.3c0-4,3.2-6.1,9.6-6.3l3.4-0.1v-1.2c0-1.5-0.3-2.7-1-3.4
				c-0.7-0.7-1.7-1.1-3.2-1.1c-1.6,0-3.5,0.5-5.6,1.5l-0.9-2.3c1-0.5,2-0.9,3.2-1.2c1.2-0.3,2.3-0.5,3.5-0.5c2.4,0,4.1,0.5,5.2,1.6
				c1.1,1,1.7,2.7,1.7,5v13.5L280.3,77.7L280.3,77.7L280.3,77.7z M273.6,75.5c1.9,0,3.3-0.5,4.4-1.5c1.1-1,1.6-2.4,1.6-4.3v-1.8
				l-3,0.1c-2.4,0.1-4.1,0.5-5.1,1.1c-1.1,0.7-1.6,1.7-1.6,3.1c0,1.1,0.3,1.9,1,2.5C271.5,75.3,272.4,75.5,273.6,75.5L273.6,75.5z
				 M284.3,57.9h3.2l4.3,11.3c0.9,2.6,1.5,4.4,1.8,5.6h0.1c0.2-0.6,0.5-1.7,1-3.1c0.5-1.5,2.1-6,4.9-13.7h3.2l-8.5,22.5
				c-0.8,2.2-1.8,3.8-2.9,4.7c-1.1,0.9-2.5,1.4-4.1,1.4c-0.9,0-1.8-0.1-2.7-0.3v-2.4c0.7,0.1,1.4,0.2,2.2,0.2c2.1,0,3.5-1.2,4.4-3.5
				l1.1-2.8L284.3,57.9L284.3,57.9z M192.6,59.7c0.9,0.8,2.9,2.4,2.9,5.6c0,3.1-1.7,4.5-3.5,5.9c-0.5,0.5-1.2,1.1-1.2,2
				c0,0.9,0.6,1.4,1.1,1.8l1.5,1.2c1.8,1.5,3.5,2.9,3.5,5.8c0,3.9-3.8,7.8-10.9,7.8c-6,0-8.9-2.8-8.9-5.9c0-1.5,0.7-3.6,3.2-5
				c2.6-1.6,6-1.8,7.9-1.9c-0.6-0.7-1.2-1.5-1.2-2.8c0-0.7,0.2-1.1,0.4-1.6c-0.5,0-0.9,0.1-1.3,0.1c-4.4,0-6.9-3.3-6.9-6.5
				c0-1.9,0.9-4,2.6-5.5c2.4-1.9,5.2-2.3,7.4-2.3h8.5l-2.6,1.5L192.6,59.7L192.6,59.7L192.6,59.7z M189.7,78.1c-0.3,0-0.5,0-0.9,0
				c-0.4,0-2.6,0.1-4.3,0.7c-0.9,0.3-3.6,1.3-3.6,4.3c0,2.9,2.9,5,7.3,5c4,0,6.1-1.9,6.1-4.5C194.2,81.4,192.8,80.3,189.7,78.1
				L189.7,78.1z M190.9,70.2c0.9-1,1-2.3,1-3c0-3-1.8-7.6-5.2-7.6c-1.1,0-2.2,0.5-2.9,1.4c-0.7,0.9-0.9,2-0.9,3.1
				c0,2.8,1.6,7.4,5.2,7.4C189.1,71.4,190.2,70.9,190.9,70.2L190.9,70.2z M166.6,77.4c-6.6,0-10.1-5.1-10.1-9.7
				c0-5.4,4.4-10,10.7-10c6.1,0,9.9,4.7,9.9,9.7C177.1,72.3,173.3,77.4,166.6,77.4L166.6,77.4z M171.8,74.1c1-1.3,1.2-3,1.2-4.6
				c0-3.6-1.7-10.6-6.8-10.6c-1.4,0-2.7,0.5-3.7,1.4c-1.6,1.4-1.9,3.3-1.9,5c0,4.1,2,10.8,7,10.8C169.2,76.2,170.8,75.4,171.8,74.1
				L171.8,74.1z M144.3,77.4c-6.6,0-10.1-5.1-10.1-9.7c0-5.4,4.4-10,10.7-10c6.1,0,9.9,4.7,9.9,9.7C154.7,72.3,151,77.4,144.3,77.4z
				 M149.4,74.1c1-1.3,1.2-3,1.2-4.6c0-3.6-1.7-10.6-6.8-10.6c-1.4,0-2.7,0.5-3.7,1.4c-1.6,1.4-1.9,3.3-1.9,5c0,4.1,2,10.8,7,10.8
				C146.8,76.2,148.5,75.4,149.4,74.1z M131.1,76.8l-5.9,1.4c-2.4,0.4-4.6,0.7-6.8,0.7c-11.4,0-15.8-8.4-15.8-15
				c0-8,6.2-15.5,16.7-15.5c2.2,0,4.4,0.3,6.3,0.9c3.1,0.9,4.6,1.9,5.5,2.6l-3.4,3.3l-1.4,0.3l1-1.7c-1.4-1.4-4-3.9-8.9-3.9
				c-6.5,0-11.5,5-11.5,12.2c0,7.8,5.6,15.1,14.7,15.1c2.7,0,4-0.5,5.3-1v-6.7l-6.3,0.3l3.3-1.8h8.8l-1.1,1
				c-0.3,0.2-0.3,0.3-0.4,0.7c0,0.4-0.1,1.6-0.1,2L131.1,76.8L131.1,76.8L131.1,76.8z"/>
		</g>
		<path class="st5" d="M111.6,36.7h-2.3c0-0.3-0.2-1.2-0.6-2.7h-3.3c-0.4,1.4-0.7,2.3-0.7,2.7h-2.1c0-0.2,0.6-1.7,1.7-4.5
			c1.1-2.8,1.7-4.4,1.7-4.7h2.7c0,0.3,0.5,1.8,1.5,4.6S111.6,36.5,111.6,36.7z M108.3,32.7c-0.8-2.4-1.2-3.8-1.2-4H107
			c0,0.2-0.4,1.5-1.3,4H108.3L108.3,32.7z M120.7,36.7H119c0-0.2-0.7-1.2-2-3.1c-1.4-2-2.1-3.3-2.3-4h-0.1c0.1,1,0.2,2,0.2,2.8
			c0,1.2,0,2.6,0.1,4.3h-1.7c0.1-1.5,0.1-3.1,0.1-4.8c0-1.7,0-3.2-0.1-4.4h2.1c0,0.3,0.6,1.3,1.8,3c1.2,1.9,2,3.1,2.1,3.8h0.1
			c-0.1-1.1-0.2-2-0.2-2.8c0-1.3,0-2.6-0.1-3.9h1.8c-0.1,1.2-0.1,2.6-0.1,4.4C120.6,33.7,120.7,35.3,120.7,36.7z M131,31.8
			c0,1.3-0.4,2.5-1.3,3.5c-0.9,1-2.1,1.5-3.6,1.5c-0.7,0-1.7,0-2.9-0.1c0.1-1.4,0.1-3,0.1-4.8c0-1.7,0-3.2-0.1-4.4h1.2
			c0.2,0,0.5,0,0.9,0c0.4,0,0.7,0,0.8,0c1.7,0,2.9,0.4,3.7,1.3C130.6,29.6,131,30.6,131,31.8L131,31.8z M129.1,32.1
			c0-0.9-0.3-1.7-0.8-2.3c-0.5-0.6-1.3-0.9-2.4-0.9c-0.2,0-0.5,0-0.8,0.1c0,0.9,0.1,1.9,0.1,3c0,1.1,0,2.3,0.1,3.4
			c0.3,0.1,0.6,0.1,0.9,0.1c1,0,1.8-0.3,2.3-0.9C128.8,33.8,129.1,33,129.1,32.1L129.1,32.1z M140.5,36.7h-2.1
			c-0.5-1.7-1-2.7-1.3-3.1c-0.3-0.4-0.8-0.6-1.4-0.6c-0.3,0-0.5,0-0.8,0c0,1.2,0,2.4,0.1,3.7h-2c0.1-1.4,0.1-3,0.1-4.8
			c0-1.7,0-3.2-0.1-4.4h1.2c0.1,0,0.4,0,0.9,0c0.5,0,0.9,0,1.3,0c2.2,0,3.3,0.7,3.3,2.2c0,1.2-0.6,2-1.9,2.5v0.1
			c0.5,0.1,0.9,0.5,1.3,1.1C139.4,34,139.9,35.1,140.5,36.7z M137.8,30.2c0-0.9-0.6-1.4-1.8-1.4c-0.4,0-0.8,0-1.2,0.1
			c0.1,0.7,0.1,1.7,0.1,2.9c0.3,0,0.5,0,0.7,0C137.1,31.8,137.8,31.2,137.8,30.2z M150.7,31.9c0,1.5-0.4,2.7-1.3,3.6
			c-0.9,1-2,1.4-3.3,1.4c-1.2,0-2.3-0.4-3.1-1.3c-0.8-0.9-1.3-2-1.3-3.3c0-1.5,0.4-2.7,1.3-3.6c0.9-1,2-1.4,3.3-1.4
			c1.2,0,2.3,0.4,3.1,1.3C150.2,29.5,150.7,30.6,150.7,31.9L150.7,31.9z M148.7,32.1c0-1-0.3-1.8-0.8-2.4c-0.5-0.6-1.1-0.9-1.9-0.9
			c-0.7,0-1.3,0.3-1.8,0.9c-0.5,0.6-0.7,1.4-0.7,2.3c0,1,0.3,1.8,0.8,2.4c0.5,0.6,1.1,0.9,1.9,0.9c0.7,0,1.3-0.3,1.8-0.9
			C148.5,33.9,148.7,33.1,148.7,32.1L148.7,32.1z M154.7,36.7h-2c0.1-1.5,0.1-3.1,0.1-4.8c0-1.7,0-3.2-0.1-4.4h2
			c-0.1,1.2-0.1,2.7-0.1,4.4C154.6,33.7,154.6,35.3,154.7,36.7z M165,31.8c0,1.3-0.4,2.5-1.3,3.5c-0.9,1-2.1,1.5-3.6,1.5
			c-0.7,0-1.7,0-2.9-0.1c0.1-1.4,0.1-3,0.1-4.8c0-1.7,0-3.2-0.1-4.4h1.2c0.2,0,0.5,0,0.9,0c0.4,0,0.7,0,0.8,0c1.7,0,2.9,0.4,3.7,1.3
			C164.6,29.6,165,30.6,165,31.8L165,31.8z M163,32.1c0-0.9-0.3-1.7-0.8-2.3c-0.5-0.6-1.3-0.9-2.4-0.9c-0.2,0-0.5,0-0.8,0.1
			c0,0.9,0.1,1.9,0.1,3c0,1.1,0,2.3,0.1,3.4c0.3,0.1,0.6,0.1,0.9,0.1c1,0,1.8-0.3,2.3-0.9C162.8,33.8,163,33,163,32.1z M178.6,36.7
			h-2.3c0-0.3-0.2-1.2-0.6-2.7h-3.3c-0.4,1.4-0.7,2.3-0.7,2.7h-2.1c0-0.2,0.6-1.7,1.7-4.5c1.1-2.8,1.7-4.4,1.7-4.7h2.7
			c0,0.3,0.5,1.8,1.5,4.6S178.6,36.5,178.6,36.7L178.6,36.7z M175.3,32.7c-0.8-2.4-1.2-3.8-1.2-4H174c0,0.2-0.4,1.5-1.3,4H175.3
			L175.3,32.7z M186.9,29.9c0,1.1-0.4,2-1.3,2.5c-0.8,0.5-1.9,0.8-3.1,0.8c-0.2,0-0.4,0-0.5,0c0,0.9,0,2.1,0.1,3.5h-2
			c0.1-1.4,0.1-3,0.1-4.8c0-1.7,0-3.2-0.1-4.4h1.2c0.2,0,0.5,0,1,0c0.5,0,0.9,0,1.3,0c0.9,0,1.7,0.2,2.3,0.6
			C186.6,28.5,186.9,29.1,186.9,29.9L186.9,29.9z M185,30.3c0-1-0.7-1.5-2-1.5c-0.3,0-0.7,0-1.1,0.1c0.1,0.9,0.1,1.9,0.1,3
			c0.1,0,0.3,0,0.4,0C184.2,31.9,185,31.4,185,30.3z M195.4,29.9c0,1.1-0.4,2-1.3,2.5c-0.8,0.5-1.9,0.8-3.1,0.8c-0.2,0-0.4,0-0.5,0
			c0,0.9,0,2.1,0.1,3.5h-2c0.1-1.4,0.1-3,0.1-4.8c0-1.7,0-3.2-0.1-4.4h1.2c0.2,0,0.5,0,1,0c0.5,0,0.9,0,1.3,0c0.9,0,1.7,0.2,2.3,0.6
			C195.1,28.5,195.4,29.1,195.4,29.9L195.4,29.9z M193.6,30.3c0-1-0.7-1.5-2-1.5c-0.3,0-0.7,0-1.1,0.1c0.1,0.9,0.1,1.9,0.1,3
			c0.1,0,0.3,0,0.4,0C192.7,31.9,193.6,31.4,193.6,30.3z M209.3,31.9c0,1.5-0.4,2.7-1.3,3.6c-0.9,1-2,1.4-3.3,1.4
			c-1.2,0-2.3-0.4-3.1-1.3c-0.8-0.9-1.3-2-1.3-3.3c0-1.5,0.4-2.7,1.3-3.6c0.9-1,2-1.4,3.3-1.4c1.2,0,2.3,0.4,3.1,1.3
			C208.9,29.5,209.3,30.6,209.3,31.9L209.3,31.9z M207.3,32.1c0-1-0.3-1.8-0.8-2.4c-0.5-0.6-1.1-0.9-1.9-0.9c-0.7,0-1.3,0.3-1.8,0.9
			c-0.5,0.6-0.7,1.4-0.7,2.3c0,1,0.3,1.8,0.8,2.4c0.5,0.6,1.1,0.9,1.9,0.9c0.7,0,1.3-0.3,1.8-0.9C207.1,33.9,207.3,33.1,207.3,32.1
			L207.3,32.1z M218.9,36.7h-1.8c0-0.2-0.6-1.2-2-3.1c-1.4-2-2.1-3.3-2.3-4h-0.1c0.1,1,0.2,2,0.2,2.8c0,1.2,0,2.6,0.1,4.3h-1.7
			c0.1-1.5,0.1-3.1,0.1-4.8c0-1.7,0-3.2-0.1-4.4h2.1c0,0.3,0.6,1.3,1.8,3c1.2,1.9,2,3.1,2.1,3.8h0.1c-0.1-1.1-0.2-2-0.2-2.8
			c0-1.3,0-2.6-0.1-3.9h1.8c-0.1,1.2-0.1,2.6-0.1,4.4C218.8,33.7,218.8,35.3,218.9,36.7z"/>
	</g>
</g>
</svg>
